<?xml version="1.0" encoding="UTF-8"?>
<svg version="1.1" xmlns="http://www.w3.org/2000/svg" width="1254" height="1254">
<path d="M0 0 C413.82 0 827.64 0 1254 0 C1254 413.82 1254 827.64 1254 1254 C840.18 1254 426.36 1254 0 1254 C0 840.18 0 426.36 0 0 Z " fill="#F9F9F9" transform="translate(0,0)"/>
<path d="M0 0 C0.94004883 0.30389648 1.88009766 0.60779297 2.84863281 0.92089844 C40.09743296 13.05524424 75.60347667 30.23085866 107.13037109 53.62207031 C109.2580614 55.19019307 111.40381409 56.73181989 113.55078125 58.2734375 C123.83614456 65.69668751 133.61752916 73.46471631 143 82 C143.60763184 82.55123535 144.21526367 83.1024707 144.84130859 83.67041016 C152.22831366 90.40122397 159.41644707 97.32607741 166.5 104.375 C167.14638428 105.01671143 167.79276855 105.65842285 168.45874023 106.31958008 C172.84076308 110.71635912 176.94987846 115.29784277 181 120 C181.92580598 121.0480048 182.85280934 122.09495359 183.78125 123.140625 C204.81710631 147.07016049 222.83349005 174.01255146 238 202 C238.43699219 202.80244141 238.87398437 203.60488281 239.32421875 204.43164062 C243.17156464 211.51976887 246.89221732 218.55371728 250 226 C250.62159049 227.39735499 251.2461277 228.79340699 251.875 230.1875 C262.01249594 252.99686586 271.39081555 276.94678194 275.421875 301.67578125 C275.95600033 304.74700192 276.68306266 307.63749963 277.5625 310.625 C287.54719187 346.12031822 285.14199743 393.82130902 275 429 C274.79584473 429.72477539 274.59168945 430.44955078 274.38134766 431.19628906 C271.4515533 441.58515744 268.38517706 451.55929907 263.4375 461.1875 C261.07597796 465.75105889 261.07597796 465.75105889 259.05859375 470.46875 C246.58609905 500.29227977 219.59769223 524.52768073 193.3828125 542.0546875 C192.64095703 542.55444092 191.89910156 543.05419434 191.13476562 543.5690918 C189.76646211 544.4862495 188.3907079 545.39244439 187.00585938 546.28442383 C182.91571391 549.0099224 180.66200305 551.55053116 178.25 555.9375 C171.6104912 567.40156538 163.1150555 577.23998905 153.85888672 586.67529297 C148.25771931 592.4733323 144.52409217 598.80768717 140.9375 606 C134.86185285 617.39680217 126.66225755 627.38765157 117.94921875 636.8671875 C112.36341099 642.97911343 108.76016812 649.32637484 105.16723633 656.72631836 C97.15709662 673.03099258 85.92311431 687.43140817 73.41210938 700.52050781 C72.4756544 701.5016484 71.54457769 702.48795247 70.61914062 703.47949219 C49.71928691 725.83850353 22.77756792 740.49352977 -5.1640625 752.22705078 C-6.83320789 752.92977875 -8.49516896 753.64951028 -10.15625 754.37109375 C-18.63577288 757.87873144 -27.35082099 759.88486692 -36.27734375 761.88671875 C-38.94271061 762.48807366 -41.40475771 763.14232657 -43.98828125 764.05078125 C-48.33873764 765.42193677 -52.73440479 765.92286634 -57.25 766.5 C-58.55710937 766.67595703 -58.55710937 766.67595703 -59.890625 766.85546875 C-62.92488566 767.25630148 -65.96206113 767.62807036 -69 768 C-69.96214417 768.12607635 -69.96214417 768.12607635 -70.94372559 768.25469971 C-83.23212219 769.86078743 -95.36164758 770.4024146 -107.75 770.375 C-108.68442932 770.37445618 -109.61885864 770.37391235 -110.581604 770.37335205 C-127.36193928 770.32877566 -143.46911422 769.0396383 -160 766 C-161.23943359 765.77505859 -162.47886719 765.55011719 -163.75585938 765.31835938 C-179.12369819 762.46780981 -194.1891932 759.0062325 -209 754 C-209.95261719 753.68192383 -210.90523437 753.36384766 -211.88671875 753.03613281 C-252.82702846 739.23647016 -290.93531263 718.87806974 -324 691 C-325.07535556 690.11177903 -326.15088476 689.22376827 -327.2265625 688.3359375 C-340.33572367 677.41662764 -352.58194167 665.53558336 -363 652 C-363.78375 651.03320312 -364.5675 650.06640625 -365.375 649.0703125 C-378.56417631 632.66685817 -389.40669809 613.61358678 -397 594 C-397.26167969 593.35417969 -397.52335937 592.70835937 -397.79296875 592.04296875 C-400.1429131 586.0837176 -401.93293336 579.92299421 -403.81640625 573.8046875 C-404.52042662 571.54159891 -405.2543919 569.28694614 -406.05078125 567.0546875 C-410.21664818 553.648482 -410.29703966 539.35105481 -410.3125 525.4375 C-410.3176059 524.34955139 -410.3176059 524.34955139 -410.32281494 523.23962402 C-410.34683207 514.29868024 -409.67494837 505.80307809 -408 497 C-407.73742246 494.70974038 -407.48548787 492.41820334 -407.25 490.125 C-405.36956297 475.74780037 -401.77741282 458.55275017 -393.8359375 446.1875 C-392.55888652 442.84568435 -393.06511849 439.61534664 -393.375 436.125 C-393.48591269 434.58483729 -393.59394913 433.04446495 -393.69921875 431.50390625 C-393.75255371 430.73965332 -393.80588867 429.97540039 -393.86083984 429.18798828 C-395.28668697 406.76966907 -391.56441568 382.80683538 -383 362 C-382.75354736 361.38753418 -382.50709473 360.77506836 -382.25317383 360.14404297 C-375.72081141 344.15369159 -367.33994634 329.81148067 -357 316 C-356.45085937 315.21109375 -355.90171875 314.4221875 -355.3359375 313.609375 C-354.89507812 313.07828125 -354.45421875 312.5471875 -354 312 C-353.34 312 -352.68 312 -352 312 C-352.02094727 311.39865234 -352.04189453 310.79730469 -352.06347656 310.17773438 C-352.41650731 298.35343885 -352.20436207 286.87658773 -350.25 275.1875 C-350.09305664 274.22972656 -349.93611328 273.27195312 -349.77441406 272.28515625 C-348.71137506 266.42517928 -347.07504689 261.00327017 -344.9362793 255.44628906 C-344.06516022 253.17024912 -343.29506891 250.88619524 -342.5625 248.5625 C-334.73150748 225.06952245 -320.27737253 197.30382834 -300.31640625 181.93359375 C-296.77258498 177.44555029 -296.96033566 172.89039355 -296.5625 167.3125 C-294.74879342 147.97628935 -290.85158739 128.8357047 -283 111 C-282.68192383 110.26265625 -282.36384766 109.5253125 -282.03613281 108.765625 C-270.72772617 82.81965117 -253.22406783 57.82721988 -231 40 C-230.05640625 39.21882813 -229.1128125 38.43765625 -228.140625 37.6328125 C-163.55284974 -15.09628775 -78.4771824 -25.73388306 0 0 Z " fill="#074834" transform="translate(690,236)"/>
<path d="M0 0 C1.1142334 0.23106445 2.2284668 0.46212891 3.37646484 0.70019531 C23.83010017 4.99456745 44.59963788 9.96803944 63.4375 19.26171875 C66.39605299 20.70531094 69.36520397 22.06355321 72.375 23.39453125 C90.49006902 31.44011647 107.7535798 40.59788999 124 52 C125.31215677 52.90024006 126.62468424 53.79993996 127.9375 54.69921875 C138.0302237 61.66271187 147.62625785 69.09873424 157 77 C157.62616211 77.52706543 158.25232422 78.05413086 158.89746094 78.59716797 C174.16148381 91.50523937 188.67396955 105.08793174 202 120 C202.47211914 120.5273877 202.94423828 121.05477539 203.43066406 121.59814453 C217.84454274 137.84095893 230.28020931 155.75519864 242 174 C242.62116699 174.96220459 242.62116699 174.96220459 243.25488281 175.94384766 C254.22215553 193.08792635 264.13021498 211.89791536 271.3125 230.9375 C272.71072404 234.64044194 274.12646215 238.33047393 275.62890625 241.9921875 C287.44415613 271.01849646 294.8540688 302.65636064 296 334 C296.0611499 335.60149902 296.0611499 335.60149902 296.12353516 337.23535156 C297.09663767 366.84251303 293.77682016 398.87543916 281 426 C280.4175556 427.31304258 279.83695697 428.62690484 279.2578125 429.94140625 C272.68621372 444.63393661 264.62852592 457.86689146 254 470 C253.32066406 470.80050781 252.64132812 471.60101562 251.94140625 472.42578125 C247.6388101 477.41612181 243.12584617 481.86161982 238 486 C236.72576172 487.03060547 236.72576172 487.03060547 235.42578125 488.08203125 C224.05244599 496.94175081 210.0883581 506.77863355 196 510.5625 C192.98993707 511.38111509 190.10356094 512.33097742 187.19921875 513.4609375 C183.13208058 515.00671676 179.04975341 516.09387105 174.8125 517.0625 C174.14669922 517.22298828 173.48089844 517.38347656 172.79492188 517.54882812 C170.53697959 518.07476604 168.27328462 518.54488978 166 519 C165.12617676 519.18240234 164.25235352 519.36480469 163.35205078 519.55273438 C152.39099506 521.55642613 141.35733539 521.3936588 130.25 521.375 C129.20696716 521.37545319 128.16393433 521.37590637 127.08929443 521.37637329 C108.91910702 521.35315026 91.26701562 520.66484442 73.95214844 514.64038086 C71.66808861 513.89112011 69.4446615 513.49290532 67.0625 513.1875 C53.39363536 510.89652128 39.46770231 505.38473072 27.203125 499.03515625 C24.66436283 497.84229814 22.08134577 496.93780393 19.4375 496 C-19.49600761 481.23677399 -54.51509672 453.83815199 -85 426 C-85.94488281 425.14792969 -86.88976562 424.29585937 -87.86328125 423.41796875 C-97.11367041 415.05123041 -106.23322055 406.47464319 -114.31640625 396.95703125 C-115.50467118 395.57577666 -116.72418193 394.22110851 -117.96484375 392.88671875 C-125.24776336 385.05066601 -131.61869031 376.5706666 -138 368 C-138.5367334 367.28279785 -139.0734668 366.5655957 -139.62646484 365.82666016 C-163.91719821 333.25415468 -182.93785162 297.86650603 -196.98095703 259.76074219 C-197.82559728 257.47248346 -198.68604609 255.19175949 -199.55859375 252.9140625 C-204.99154106 238.39235286 -208.24729096 223.36363612 -211.25 208.1875 C-211.50837646 206.90109619 -211.76675293 205.61469238 -212.03295898 204.28930664 C-217.60971946 175.29795703 -216.23540547 145.27895432 -209.6875 116.625 C-209.40382568 115.3767041 -209.12015137 114.1284082 -208.82788086 112.84228516 C-205.83846423 100.32810039 -201.28311733 88.87852281 -195.3125 77.5 C-194.79067139 76.50460205 -194.26884277 75.5092041 -193.73120117 74.48364258 C-189.50968136 66.61104393 -184.87195029 59.7329117 -179 53 C-178.22785156 52.1028125 -177.45570313 51.205625 -176.66015625 50.28125 C-174.4829938 47.81007757 -172.25706711 45.3981338 -170 43 C-169.1028125 42.00613281 -169.1028125 42.00613281 -168.1875 40.9921875 C-150.74000006 22.41661644 -124.37610207 9.39656579 -100 3 C-98.74445313 2.65195313 -97.48890625 2.30390625 -96.1953125 1.9453125 C-66.57597619 -5.93034918 -29.94158334 -6.47530221 0 0 Z " fill="#F7F6F6" transform="translate(654,252)"/>
<path d="M0 0 C0.33 0 0.66 0 1 0 C1.06731323 1.00075562 1.06731323 1.00075562 1.13598633 2.02172852 C5.79646396 69.94398228 26.28919493 133.40781957 63 191 C63.40686035 191.63856934 63.8137207 192.27713867 64.23291016 192.93505859 C74.00233701 208.15105088 84.71282913 222.7924337 96.6171875 236.40673828 C98.105 238.12097987 99.5696221 239.8532332 101.03125 241.58984375 C106.13419677 247.63787011 111.30189385 253.46541848 116.984375 258.984375 C118.95516371 260.95516371 120.76133057 262.99929553 122.5625 265.125 C125.47554623 268.52243267 128.63209677 271.40383627 132.04296875 274.29296875 C133.89980925 275.91260807 135.60397492 277.60123291 137.3125 279.375 C141.01574228 283.14557395 145.08557959 286.39014767 149.203125 289.6953125 C151.75446544 291.79767404 154.15639187 293.98493959 156.5625 296.25 C163.8386166 302.85942661 171.94517251 308.3927166 180 314 C181.0832959 314.75651855 181.0832959 314.75651855 182.18847656 315.52832031 C209.72271554 334.63705694 239.42832719 350.6899059 271 362 C271.89557617 362.32194336 272.79115234 362.64388672 273.71386719 362.97558594 C286.27635141 367.44031751 298.94037667 371.29170387 312 374 C313.10585449 374.22993652 314.21170898 374.45987305 315.35107422 374.69677734 C346.31903032 380.87697882 381.33732483 382.60532116 412.3125 375.625 C413.29283203 375.41617187 414.27316406 375.20734375 415.28320312 374.9921875 C425.74456076 372.72429239 435.74935933 369.90127598 445.67382812 365.8984375 C447.42915799 365.2119387 449.21298132 364.59918926 451 364 C451.66 364.33 452.32 364.66 453 365 C415.56157369 396.53636851 369.78851512 410.47025945 321.3125 410.375 C320.22562897 410.37412384 319.13875793 410.37324768 318.01895142 410.37234497 C301.03085341 410.32719585 284.66113596 409.59755315 268 406 C266.86481934 405.75862305 265.72963867 405.51724609 264.56005859 405.26855469 C233.93274072 398.56738014 204.68916895 387.46101517 176.90820312 372.98876953 C174.95184436 371.97504729 172.9846715 370.98491414 171.015625 369.99609375 C152.43382182 360.55052793 135.26623732 348.99655009 119 336 C118.04867187 335.24976563 117.09734375 334.49953125 116.1171875 333.7265625 C113.73101072 331.83407747 111.36379109 329.9203328 109 328 C108.07574219 327.26136719 107.15148437 326.52273438 106.19921875 325.76171875 C101.43718395 321.92760413 96.90342149 318.05758144 92.65625 313.66015625 C90.94488165 311.94475165 89.15810592 310.38202143 87.3125 308.8125 C79.56970553 302.1241717 72.30554835 294.75410489 65.68359375 286.95703125 C64.49532882 285.57577666 63.27581807 284.22110851 62.03515625 282.88671875 C54.75426541 275.05284886 48.37440529 266.57275274 42 258 C41.54979492 257.39639648 41.09958984 256.79279297 40.63574219 256.17089844 C10.55043177 215.61710433 -11.98365886 168.08384194 -20 118 C-20.11714355 117.27167969 -20.23428711 116.54335938 -20.35498047 115.79296875 C-26.3984156 75.92246062 -20.44523141 36.42446524 -1 1 C-0.67 0.67 -0.34 0.34 0 0 Z " fill="#F6F6F6" transform="translate(392,434)"/>
<path d="M0 0 C18.13665646 -0.10760766 36.21897582 0.14410719 54.34375 0.8046875 C56.77663939 0.88993849 59.20954179 0.97481867 61.64245605 1.05935669 C66.70462052 1.23626311 71.76665655 1.41636873 76.82861328 1.59912109 C83.17192942 1.82805614 89.51544428 2.05075805 95.85905457 2.27137375 C110.42759996 2.77855677 124.99508142 3.31053251 139.56176758 3.86857605 C141.84934091 3.95601689 144.13693865 4.04282162 146.42456055 4.12898254 C152.82299042 4.37003154 159.22088688 4.62050533 165.61827087 4.88794327 C167.54397294 4.967186 169.46980838 5.04325798 171.39576721 5.1159935 C174.00976254 5.21554047 176.62296936 5.32699215 179.23632812 5.44189453 C180.00251465 5.46856831 180.76870117 5.49524208 181.55810547 5.52272415 C186.77136291 5.77136291 186.77136291 5.77136291 189 8 C189.52734375 10.50390625 189.52734375 10.50390625 189.9375 13.5625 C190.64341447 18.22042385 191.68512953 22.41248092 193.26953125 26.8359375 C194.96315289 31.85340482 196 36.70565687 196 42 C181.15 42 166.3 42 151 42 C154.3 46.95 157.6 51.9 161 57 C166.54867257 68.19469027 166.54867257 68.19469027 168 74 C179.88 74.66 191.76 75.32 204 76 C206.14108743 82.42326229 208.04973998 88.65130366 209.6875 95.1875 C209.91244141 96.05052734 210.13738281 96.91355469 210.36914062 97.80273438 C210.58119141 98.64513672 210.79324219 99.48753906 211.01171875 100.35546875 C211.20209717 101.10465576 211.39247559 101.85384277 211.58862305 102.62573242 C212 105 212 105 212 111 C200.45 111 188.9 111 177 111 C177 115.62 177 120.24 177 125 C175.59937476 140.3922878 168.65383672 154.73687793 157 165 C141.69985684 177.0658091 125.02774033 179.68163536 106 181 C107.32022495 182.11711342 108.64045288 183.2342233 109.96069336 184.35131836 C111.12952511 185.34035527 112.29830621 186.32945205 113.46704102 187.31860352 C116.39875289 189.79970404 119.33105666 192.28009088 122.265625 194.7578125 C128.45485143 199.9854763 134.62013931 205.23978249 140.76708984 210.51708984 C146.81855146 215.70909283 152.90724856 220.85657563 159 226 C161.146334 227.81190825 163.29223737 229.62432337 165.4375 231.4375 C165.96980225 231.88730225 166.50210449 232.33710449 167.05053711 232.80053711 C170.49218942 235.71278399 173.91700177 238.64390149 177.33447266 241.58447266 C182.9031555 246.37563556 188.51943785 251.09140842 194.22265625 255.72265625 C197.34396367 258.28204054 200.4245003 260.88593791 203.5 263.5 C208.33900531 267.61212524 213.22933305 271.6534135 218.15625 275.66015625 C222.03454816 278.8512285 225.85935656 282.1040901 229.67382812 285.37109375 C232.05327468 287.39966777 234.39407179 289.26271453 237 291 C236.67 292.32 236.34 293.64 236 295 C228.68075354 295.30378079 221.36290401 295.53344248 214.03858757 295.67355824 C210.6355732 295.74088263 207.23692547 295.83181979 203.83642578 295.98071289 C178.79584561 296.9968657 178.79584561 296.9968657 171.22549438 290.51420593 C169.07058209 288.31631297 167.13553388 286.02785986 165.27973938 283.57383728 C163.30462556 281.14482103 160.91330623 279.33206025 158.4375 277.4375 C154.28899495 274.1174776 150.37474704 270.62948833 146.5 267 C142.60423719 263.35111551 138.66665716 259.84301562 134.5 256.5 C130.33333543 253.15697842 126.39582142 249.64883069 122.5 246 C117.71685959 241.52081908 112.79184792 237.31548369 107.6796875 233.2109375 C104.86746685 230.8906505 102.18202737 228.46928866 99.5 226 C95.92207537 222.70668301 92.28460334 219.55348679 88.5 216.5 C84.71539666 213.44651321 81.07792463 210.29331699 77.5 207 C73.03765189 202.89311632 68.425586 199.04162089 63.70703125 195.234375 C60.13008151 192.28197204 56.70505377 189.17905438 53.2890625 186.04296875 C51.04230143 183.95009188 51.04230143 183.95009188 48.48095703 182.27514648 C45.41935619 179.46752414 44.93520722 177.57345505 44.015625 173.5546875 C43.57283203 171.69263672 43.57283203 171.69263672 43.12109375 169.79296875 C42.83006987 168.48712593 42.53971258 167.18113437 42.25 165.875 C41.94582084 164.56077758 41.63984843 163.24696884 41.33203125 161.93359375 C40.77066159 159.53592154 40.21801404 157.1361793 39.67675781 154.73388672 C39.12037114 152.05808605 39.12037114 152.05808605 38 150 C37.95977609 147.6670134 37.95679753 145.33293334 38 143 C38.76626709 143.0030162 39.53253418 143.00603241 40.32202148 143.00914001 C47.61668766 143.03157652 54.91018318 143.0197986 62.20469666 142.97153378 C65.95314836 142.94788626 69.70072051 142.93653021 73.44921875 142.95532227 C98.90182635 143.78498419 98.90182635 143.78498419 120.78466797 132.40356445 C126.99652875 125.66389403 131.32544325 118.03338872 133 109 C132.02393799 109.00523682 131.04787598 109.01047363 130.04223633 109.01586914 C109.79319741 109.11390641 89.55721136 109.01452234 69.3125 108.5625 C67.93887802 108.5330278 67.93887802 108.5330278 66.5375061 108.50296021 C53.34612951 108.21466703 40.17672612 107.68197319 27 107 C24.85529312 100.67108652 22.94501152 94.3557255 21.3125 87.875 C20.97508789 86.59302734 20.97508789 86.59302734 20.63085938 85.28515625 C20.41880859 84.44597656 20.20675781 83.60679687 19.98828125 82.7421875 C19.79790283 81.9982373 19.60752441 81.25428711 19.41137695 80.48779297 C18.88505622 77.30488004 18.93792187 74.21972026 19 71 C28.18767771 71.11260148 37.37514937 71.23841787 46.5625 71.375 C47.24677944 71.38516521 47.93105888 71.39533043 48.63607407 71.40580368 C74.78111016 71.79892704 100.8836676 72.69103959 127 74 C125.92418774 72.09543206 124.84062506 70.19524095 123.75390625 68.296875 C123.1513501 67.23823242 122.54879395 66.17958984 121.92797852 65.08886719 C114.3585064 52.96160859 100.63623027 45.08441214 87.01895142 41.47488403 C78.98246901 39.65692408 70.90948734 39.55139994 62.7109375 39.3671875 C61.15579243 39.32595863 59.60066751 39.28396363 58.04556274 39.24124146 C53.98521407 39.13172519 49.92467901 39.03250603 45.86401367 38.93554688 C41.70735412 38.83443343 37.55095969 38.72342099 33.39453125 38.61328125 C25.2632461 38.39925299 17.13173672 38.19611977 9 38 C6.88207395 33.88307468 5.39363715 30.21116597 4.39453125 25.68359375 C4.13349609 24.50732422 3.87246094 23.33105469 3.60351562 22.11914062 C3.34248047 20.90419922 3.08144531 19.68925781 2.8125 18.4375 C2.40354492 16.60928711 2.40354492 16.60928711 1.98632812 14.74414062 C0.88798942 9.7259164 -0.06987567 5.14499859 0 0 Z " fill="#D29421" transform="translate(579,380)"/>
<path d="M0 0 C1.79689077 3.16820216 2.46539651 5.97577766 3.0078125 9.56640625 C3.18554199 10.67822266 3.36327148 11.79003906 3.54638672 12.93554688 C3.7373291 14.13244141 3.92827148 15.32933594 4.125 16.5625 C6.58601593 31.09852358 10.43386453 44.98838488 15 59 C15.44496826 60.38421143 15.44496826 60.38421143 15.89892578 61.79638672 C30.63574184 107.25243672 56.4720887 149.51222579 88.8046875 184.59375 C90.65085779 186.61731032 92.44264383 188.67146289 94.23046875 190.74609375 C98.1207376 195.20235207 102.24463695 199.39228068 106.4375 203.5625 C107.14970703 204.27857422 107.86191406 204.99464844 108.59570312 205.73242188 C113.23311156 210.36140631 118.02537004 214.73763609 123 219 C123.97582031 219.85722656 124.95164062 220.71445312 125.95703125 221.59765625 C139.76741538 233.51879494 154.62674034 244.18870685 170 254 C170.65162109 254.41781738 171.30324219 254.83563477 171.97460938 255.26611328 C207.13234332 277.66444953 244.46047604 294.27999718 285 304 C285.99588135 304.24387451 286.9917627 304.48774902 288.01782227 304.73901367 C323.75154557 313.28647861 362.17437212 315.98435226 398.33496094 308.54248047 C400.85525521 308.02946344 403.3776286 307.58495486 405.9140625 307.16015625 C427.73683431 303.31682403 454.43638627 294.82800376 472 281 C472.66 281.33 473.32 281.66 474 282 C443.53372567 310.6631683 408.82132933 330.42701354 368 340 C367.269021 340.18127441 366.53804199 340.36254883 365.78491211 340.54931641 C347.08675807 345.02427027 327.32286459 345.29410945 308.1875 345.3125 C307.35572235 345.31590393 306.5239447 345.31930786 305.66696167 345.32281494 C290.03371879 345.35951496 274.95278463 343.86644609 259.625 340.6875 C258.03365234 340.36265625 258.03365234 340.36265625 256.41015625 340.03125 C247.57509881 338.19194201 238.84702937 336.05466002 230.16162109 333.60742188 C228.07609474 333.02138284 225.98599391 332.45504373 223.89453125 331.890625 C158.89946638 313.97896765 95.26699465 274.1513878 52 222 C51.36022217 221.25484131 51.36022217 221.25484131 50.70751953 220.49462891 C36.42924241 203.85662308 24.15814294 185.42584918 14 166 C13.49895752 165.05930664 13.49895752 165.05930664 12.98779297 164.09960938 C4.44738186 148.00531674 -1.89962624 131.28128636 -6.87109375 113.76953125 C-7.60388345 110.23794377 -7.60388345 110.23794377 -9 109 C-12.19772959 94.41939244 -13.38137522 79.5745597 -13.375 64.6875 C-13.37636963 63.44532715 -13.37773926 62.2031543 -13.37915039 60.92333984 C-13.23076361 48.34986595 -11.76749329 36.21706259 -8.0625 24.1875 C-7.68448242 22.91229492 -7.68448242 22.91229492 -7.29882812 21.61132812 C-6.79531753 19.91793571 -6.28584489 18.22630302 -5.77001953 16.53662109 C-5.23910341 14.78766152 -4.71993675 13.03510677 -4.21044922 11.27978516 C-3.95408691 10.39983887 -3.69772461 9.51989258 -3.43359375 8.61328125 C-3.20599365 7.82348877 -2.97839355 7.03369629 -2.74389648 6.2199707 C-2.00667397 4.01991678 -1.08828099 2.04610835 0 0 Z " fill="#F5F6F5" transform="translate(338,567)"/>
<path d="M0 0 C0.66 0 1.32 0 2 0 C2.23074219 0.98097656 2.46148437 1.96195313 2.69921875 2.97265625 C6.90678339 20.56035322 6.90678339 20.56035322 14.0625 37.09375 C15.13042537 39.26519825 15.82291718 41.44591507 16.5625 43.75 C24.79385328 66.91264528 40.73238307 88.97889976 56 108 C56.79019531 109.00289062 57.58039063 110.00578125 58.39453125 111.0390625 C72.06257921 128.13027923 87.69927965 144.58162923 105 158 C106.14950698 158.93589674 107.29648019 159.87491098 108.44140625 160.81640625 C117.29532774 168.06978414 126.44439254 174.7038919 136 181 C136.70543945 181.46873535 137.41087891 181.9374707 138.13769531 182.42041016 C161.54736059 197.89592714 186.3156021 210.49336892 212.7578125 219.84765625 C215.18210898 220.70930379 217.59508088 221.5865436 220 222.5 C230.30243482 226.37975622 240.47193098 229.91743777 251.1875 232.5 C252.40566406 232.79406738 253.62382813 233.08813477 254.87890625 233.39111328 C265.0144178 235.73507779 275.20152747 237.42380971 285.5 238.875 C286.23149261 238.9783667 286.96298523 239.0817334 287.71664429 239.18823242 C331.95412909 245.35363133 383.3134251 243.80518376 424.890625 225.37109375 C427.24411499 224.3333111 429.59361747 223.35438131 431.984375 222.41015625 C445.36116008 217.10735815 457.76862108 210.59784479 470 203 C465.94267519 212.58405915 455.00699316 219.79870762 447 226 C446.44183594 226.4345752 445.88367188 226.86915039 445.30859375 227.31689453 C426.05530361 242.20645819 404.06564431 253.3114519 381 261 C379.80890625 261.47695313 378.6178125 261.95390625 377.390625 262.4453125 C371.92218692 264.50773564 366.26086302 265.68777175 360.5625 266.9375 C358.99918945 267.29618164 358.99918945 267.29618164 357.40429688 267.66210938 C353.61382976 268.50271033 349.8127343 269.26883926 346 270 C344.68147034 270.25574799 344.68147034 270.25574799 343.33630371 270.5166626 C327.01590567 273.60870578 311.21595881 274.65277871 294.625 274.5 C292.89416168 274.4931871 292.89416168 274.4931871 291.12835693 274.48623657 C274.06419002 274.40754611 257.72414865 273.5716653 241 270 C239.47607256 269.70796916 237.95137193 269.41993235 236.42578125 269.13671875 C232.93799683 268.47862309 229.47024325 267.7456721 226 267 C225.29327148 266.87069092 224.58654297 266.74138184 223.85839844 266.6081543 C216.54565356 265.24831574 209.49328405 263.20348499 202.375 261.0625 C201.199375 260.71509766 200.02375 260.36769531 198.8125 260.00976562 C192.77813909 258.20962762 186.85996812 256.30462452 181 254 C179.83339844 253.55140625 178.66679687 253.1028125 177.46484375 252.640625 C168.47629947 249.09696856 159.69727553 245.20901189 151 241 C149.85289551 240.45085937 149.85289551 240.45085937 148.68261719 239.890625 C108.3455041 220.5210629 68.05793066 192.10899902 41 156 C39.92722238 154.61707962 38.85429164 153.23427802 37.78125 151.8515625 C29.06699461 140.47308381 21.79151346 128.60638293 15 116 C14.31522997 114.76685722 13.63034806 113.53377655 12.9453125 112.30078125 C-5.6786207 77.32917335 -8.74101893 38.07224293 0 0 Z " fill="#F4F5F5" transform="translate(301,701)"/>
<path d="M0 0 C1.0204541 0.03335449 2.0409082 0.06670898 3.09228516 0.10107422 C25.9487812 1.09557722 52.30388741 7.26201008 72.96875 17.0546875 C75.07469214 18.03476057 77.20399002 18.86221881 79.375 19.6875 C111.33595019 32.43236113 140.79037424 51.84490198 167 74 C167.51369141 74.42345703 168.02738281 74.84691406 168.55664062 75.28320312 C177.4413492 82.60808149 185.71816206 90.50779652 193.875 98.625 C194.36109741 99.10592102 194.84719482 99.58684204 195.34802246 100.08233643 C202.02979111 106.70790117 208.13325258 113.64259536 214 121 C214.87504214 122.03933455 215.75516773 123.07445609 216.64453125 124.1015625 C240.76238974 152.17388067 262.52220123 187.75957098 274 223 C274.71638433 224.92857138 275.4335575 226.85687264 276.16113281 228.78125 C282.16486221 244.66072984 286.82151603 260.31839642 290 277 C290.31081874 278.55346133 290.62199363 280.10685146 290.93359375 281.66015625 C292.76830332 291.07283005 293.71834999 300.41240378 294 310 C294.03786621 310.94037109 294.07573242 311.88074219 294.11474609 312.84960938 C295.056684 338.11103261 291.6838237 363.1877221 283 387 C282.71286133 387.78874512 282.42572266 388.57749023 282.12988281 389.39013672 C270.14567751 421.47541718 247.45965446 449.31384935 215.99462891 463.93164062 C211.7197219 465.77518777 207.37367652 467.40517873 203 469 C201.81019531 469.48339844 200.62039063 469.96679688 199.39453125 470.46484375 C162.18416534 484.34337696 112.82136408 480.10941398 76.6015625 464.5390625 C73.10445434 463.04463667 69.58485534 461.76706094 66 460.5 C33.75768861 448.58660945 4.52985061 429.63843394 -22 408 C-22.53544434 407.56365234 -23.07088867 407.12730469 -23.62255859 406.67773438 C-39.79236993 393.41976577 -55.46490801 378.96012931 -69 363 C-70.2684375 361.56527344 -70.2684375 361.56527344 -71.5625 360.1015625 C-95.67974401 332.71334792 -115.1154339 301.65813698 -131 268.875 C-131.52803223 267.78541992 -132.05606445 266.69583984 -132.60009766 265.57324219 C-136.11622363 258.18070837 -139.1560578 250.67415104 -142 243 C-142.52038195 241.6248291 -143.04108892 240.24978102 -143.5625 238.875 C-143.79324219 238.24980469 -144.02398437 237.62460937 -144.26171875 236.98046875 C-144.79097485 235.56071825 -145.33726208 234.14727187 -145.89453125 232.73828125 C-149.09594383 224.4095067 -151.25630599 215.8408226 -153.44042969 207.203125 C-153.92130286 205.30984423 -154.41630842 203.4201629 -154.9140625 201.53125 C-161.7987716 175.10509386 -164.13856975 144.89674222 -159 118 C-158.87641113 117.29037109 -158.75282227 116.58074219 -158.62548828 115.84960938 C-152.39287411 80.22172039 -134.47509532 47.10672542 -104.7578125 25.66015625 C-89.9820444 15.6646589 -74.13406692 8.85243368 -57 4 C-56.20625977 3.7726416 -55.41251953 3.5452832 -54.59472656 3.31103516 C-36.83736279 -1.51602925 -18.22865671 -0.60021823 0 0 Z M-56 12 C-56.7724707 12.21430664 -57.54494141 12.42861328 -58.34082031 12.64941406 C-79.82573236 18.77141098 -97.95881626 29.52548851 -114 45 C-114.86625 45.79148437 -115.7325 46.58296875 -116.625 47.3984375 C-141.25781619 70.56868023 -151.82652504 106.63046815 -153.09765625 139.52734375 C-153.23236593 145.35578271 -153.15306166 151.17281007 -153 157 C-152.98598145 157.71333496 -152.97196289 158.42666992 -152.95751953 159.16162109 C-152.3306645 186.54290753 -145.42330676 214.7660965 -135 240 C-134.35589844 241.62204969 -133.71273788 243.24447322 -133.0703125 244.8671875 C-117.9684934 282.6057338 -97.40775644 318.0422585 -71 349 C-70.31550781 349.80969238 -70.31550781 349.80969238 -69.6171875 350.63574219 C-57.26524158 365.22688249 -44.43497971 379.43443688 -30 392 C-29.21761963 392.68352539 -29.21761963 392.68352539 -28.41943359 393.38085938 C-20.8726721 399.95114107 -13.09134682 406.10694 -5 412 C-3.96875 412.76699219 -2.9375 413.53398438 -1.875 414.32421875 C21.12840246 431.28008604 46.65981583 446.42799506 74 455 C77.6981462 456.32607129 81.35702021 457.74046389 85 459.2109375 C96.32019507 463.60340902 108.08162044 465.85340455 120 468 C121.11882568 468.20351074 121.11882568 468.20351074 122.26025391 468.41113281 C143.39368183 472.05748368 166.32144981 471.76104965 187 466 C187.7930957 465.78182617 188.58619141 465.56365234 189.40332031 465.33886719 C221.73013586 456.06839921 248.49128158 436.53969175 265.26171875 407.21875 C293.8410544 354.4124712 289.2076339 295.92884219 272.6484375 240.2578125 C254.77398327 181.98126873 215.8452848 122.36700304 167.8203125 84.26171875 C165.33461217 82.26833857 162.92139071 80.21172846 160.51879883 78.11962891 C134.99869332 56.01560051 105.24447314 38.63235836 74.07421875 25.88623047 C72.33907592 25.14487354 70.64680819 24.30422225 68.96875 23.44140625 C34.07828792 6.50116874 -18.39216572 1.26190912 -56 12 Z " fill="#D59828" transform="translate(630,271)"/>
<path d="M0 0 C6.69129449 -0.12813117 13.37811792 -0.0835807 20 1 C20.33 1.33 20.66 1.66 21 2 C23.73701178 2.16010481 26.4516759 2.25946828 29.19140625 2.31640625 C30.42116432 2.3475779 30.42116432 2.3475779 31.67576599 2.37937927 C34.30458901 2.44496494 36.93351504 2.50380126 39.5625 2.5625 C41.34050561 2.60567667 43.11850065 2.64929067 44.89648438 2.69335938 C49.26421634 2.80065543 53.63205227 2.90189704 58 3 C58 3.33 58 3.66 58 4 C52.1508097 4.05004902 46.30174852 4.08602145 40.45239258 4.10986328 C38.46929753 4.11981971 36.48621675 4.13338972 34.50317383 4.15087891 C22.81403401 4.25126556 11.53869593 4.00505893 0 2 C0 1.34 0 0.68 0 0 Z " fill="#437364" transform="translate(545,1002)"/>
<path d="M0 0 C0 3 0 3 -2.40625 5.69921875 C-3.4299968 6.70302243 -4.4616054 7.69885649 -5.5 8.6875 C-6.02464844 9.19861328 -6.54929687 9.70972656 -7.08984375 10.23632812 C-8.38660904 11.49772708 -9.69246117 12.74977212 -11 14 C-11.99 13.67 -12.98 13.34 -14 13 C-16.31323074 13.37310173 -17.95297207 13.97354679 -20 15.125 C-22.46792868 16.2047188 -23.48225115 15.74483403 -26 15 C-24.87722656 14.41992188 -23.75445313 13.83984375 -22.59765625 13.2421875 C-14.80666831 9.18628317 -7.12450535 5.17592269 0 0 Z " fill="#D7E2DE" transform="translate(770,904)"/>
<path d="M0 0 C7.33333333 7.33333333 14.66666667 14.66666667 22 22 C21.01 22.33 20.02 22.66 19 23 C15.81715905 19.93299592 12.65672488 16.8438598 9.5 13.75 C8.59378906 12.87730469 7.68757813 12.00460937 6.75390625 11.10546875 C5.89667969 10.26113281 5.03945313 9.41679688 4.15625 8.546875 C3.36025391 7.77182617 2.56425781 6.99677734 1.74414062 6.19824219 C0 4 0 4 0 0 Z " fill="#194E3E" transform="translate(336,895)"/>
<path d="M0 0 C0.33 0 0.66 0 1 0 C1.64080989 6.82106529 0.93802705 11.20680724 -2.80859375 16.9921875 C-4.00604996 19.01019567 -4.55319662 20.7094907 -5 23 C-5.66 23 -6.32 23 -7 23 C-3.59875905 6.778697 -3.59875905 6.778697 0 0 Z " fill="#E4ECE9" transform="translate(338,567)"/>
<path d="M0 0 C1.67968213 0.01005603 3.35937012 0.01917722 5.0390625 0.02734375 C9.10952282 0.04913532 13.17969468 0.08351837 17.25 0.125 C17.25 0.455 17.25 0.785 17.25 1.125 C16.22640381 1.14481934 15.20280762 1.16463867 14.14819336 1.18505859 C10.32552825 1.26152722 6.50322345 1.35017867 2.6809082 1.44238281 C1.03124135 1.48050299 -0.61850382 1.5153845 -2.26831055 1.546875 C-4.64920921 1.5928966 -7.02957652 1.65082635 -9.41015625 1.7109375 C-10.50433617 1.72826431 -10.50433617 1.72826431 -11.62062073 1.74594116 C-16.29541338 1.87859897 -20.24135088 2.78284881 -24.75 4.125 C-28.1875 3.75 -28.1875 3.75 -30.75 3.125 C-30.75 2.795 -30.75 2.465 -30.75 2.125 C-20.47122143 -0.13959925 -10.45530738 -0.10981595 0 0 Z " fill="#D6A23D" transform="translate(612.75,270.875)"/>
<path d="M0 0 C4.71626167 3.65965112 8.27714031 7.56586717 11.875 12.3125 C12.37257813 12.95767578 12.87015625 13.60285156 13.3828125 14.26757812 C14.59451851 15.84046574 15.79811973 17.4195916 17 19 C16.34 19.66 15.68 20.32 15 21 C14.67 20.01 14.34 19.02 14 18 C13.34 18 12.68 18 12 18 C11.34 16.35 10.68 14.7 10 13 C9.34 13 8.68 13 8 13 C6.6459068 11.01399663 5.31542376 9.01182457 4 7 C3.2575 6.278125 2.515 5.55625 1.75 4.8125 C0 3 0 3 0 0 Z " fill="#19503C" transform="translate(873,360)"/>
<path d="M0 0 C0.33 0 0.66 0 1 0 C1.19397476 1.97854258 1.38001321 3.9578648 1.5625 5.9375 C1.66691406 7.03964844 1.77132813 8.14179687 1.87890625 9.27734375 C1.91886719 10.17582031 1.95882813 11.07429687 2 12 C1.67 12.33 1.34 12.66 1 13 C0.84126045 15.21687994 0.74866163 17.43855298 0.68359375 19.66015625 C0.66281265 20.32462265 0.64203156 20.98908905 0.62062073 21.6736908 C0.55506342 23.80318543 0.49621215 25.93280668 0.4375 28.0625 C0.39432061 29.50326847 0.35070651 30.94402399 0.30664062 32.38476562 C0.19937607 35.9230404 0.09812629 39.46145869 0 43 C-0.33 43 -0.66 43 -1 43 C-1.02492221 38.32267637 -1.04296415 33.64539233 -1.05493164 28.96801758 C-1.05992654 27.38044561 -1.06672475 25.79287817 -1.07543945 24.20532227 C-1.16225376 7.97104742 -1.16225376 7.97104742 0 0 Z " fill="#3A6958" transform="translate(281,736)"/>
<path d="M0 0 C1.18797432 0.00212242 1.18797432 0.00212242 2.39994812 0.00428772 C4.91641094 0.00986168 7.43278306 0.02240932 9.94921875 0.03515625 C11.660806 0.04017462 13.37239466 0.04473694 15.08398438 0.04882812 C19.26826383 0.05982257 23.45247594 0.07706918 27.63671875 0.09765625 C27.63671875 0.42765625 27.63671875 0.75765625 27.63671875 1.09765625 C26.71858398 1.1227124 25.80044922 1.14776855 24.85449219 1.17358398 C21.4401485 1.26885895 18.02596672 1.36808403 14.61181641 1.4699707 C13.13562485 1.5132166 11.6593866 1.55489881 10.18310547 1.5949707 C8.05812527 1.65292471 5.93337782 1.71654571 3.80859375 1.78125 C2.53081055 1.81790771 1.25302734 1.85456543 -0.06347656 1.89233398 C-2.7066077 2.05679635 -4.83231897 2.44449334 -7.36328125 3.09765625 C-9.37274347 2.82715172 -11.37682349 2.50397716 -13.36328125 2.09765625 C-13.36328125 1.76765625 -13.36328125 1.43765625 -13.36328125 1.09765625 C-8.91000488 -0.0147006 -4.55879352 -0.03089246 0 0 Z " fill="#D1911C" transform="translate(603.36328125,271.90234375)"/>
<path d="M0 0 C-1.59987856 1.31772362 -3.20505966 2.62901137 -4.8125 3.9375 C-5.70582031 4.66839844 -6.59914063 5.39929688 -7.51953125 6.15234375 C-10 8 -10 8 -13 9 C-13.66 7.35 -14.32 5.7 -15 4 C-12.87875034 3.13656176 -10.75286928 2.28449352 -8.625 1.4375 C-6.84996094 0.72400391 -6.84996094 0.72400391 -5.0390625 -0.00390625 C-2 -1 -2 -1 0 0 Z " fill="#CFDDD7" transform="translate(845,799)"/>
<path d="M0 0 C0.66 0.33 1.32 0.66 2 1 C0.25500253 2.63067005 -1.49558788 4.25451247 -3.25 5.875 C-3.74113281 6.33519531 -4.23226562 6.79539062 -4.73828125 7.26953125 C-7.33862024 9.66184312 -9.72075115 11.64145405 -13 13 C-13 10 -13 10 -12 7 C-9.53125 5.4296875 -9.53125 5.4296875 -6.5 3.875 C-3.02894148 2.2555644 -3.02894148 2.2555644 0 0 Z " fill="#D9E3DD" transform="translate(810,848)"/>
<path d="M0 0 C0.66 0.33 1.32 0.66 2 1 C0.58791833 2.60820412 -0.82986036 4.21140708 -2.25 5.8125 C-3.03890625 6.70582031 -3.8278125 7.59914063 -4.640625 8.51953125 C-6.65879445 10.64128225 -8.59916705 12.34254423 -11 14 C-10.52590352 9.68269587 -7.96603297 7.66352539 -4.9375 4.75 C-4.01839844 3.85796875 -3.09929687 2.9659375 -2.15234375 2.046875 C-1.44207031 1.37140625 -0.73179687 0.6959375 0 0 Z " fill="#E9EFED" transform="translate(492,287)"/>
<path d="M0 0 C0 3 0 3 -1.53125 4.82421875 C-2.50578125 5.74654297 -2.50578125 5.74654297 -3.5 6.6875 C-4.1496875 7.31011719 -4.799375 7.93273437 -5.46875 8.57421875 C-5.9740625 9.04472656 -6.479375 9.51523437 -7 10 C-8.32 9.01 -9.64 8.02 -11 7 C-7.37 4.69 -3.74 2.38 0 0 Z " fill="#C3D1CB" transform="translate(770,904)"/>
<path d="M0 0 C0.66 0.99 1.32 1.98 2 3 C0.75965588 4.32162881 -0.49268626 5.63200453 -1.75 6.9375 C-2.44609375 7.66839844 -3.1421875 8.39929688 -3.859375 9.15234375 C-6.00599725 11.00517646 -7.23532932 11.60771565 -10 12 C-9.61328125 11.55269531 -9.2265625 11.10539063 -8.828125 10.64453125 C-5.81609925 7.1478974 -2.85678969 3.62592537 0 0 Z " fill="#E9EFED" transform="translate(921,745)"/>
<path d="M0 0 C3.875 1.875 3.875 1.875 5 3 C6.34015221 3.15582303 7.68758903 3.25044142 9.03515625 3.31640625 C9.84404297 3.35830078 10.65292969 3.40019531 11.48632812 3.44335938 C12.33646484 3.48267578 13.18660156 3.52199219 14.0625 3.5625 C14.91650391 3.60568359 15.77050781 3.64886719 16.65039062 3.69335938 C18.76672037 3.79976702 20.88333813 3.90041731 23 4 C23 4.33 23 4.66 23 5 C19.91884257 5.28466242 16.83579677 5.52158834 13.75 5.75 C12.87730469 5.83121094 12.00460937 5.91242187 11.10546875 5.99609375 C4.6198258 6.44167227 4.6198258 6.44167227 1.390625 4.140625 C0 2 0 2 0 0 Z " fill="#D79828" transform="translate(752,668)"/>
<path d="M0 0 C0.33 0 0.66 0 1 0 C2.36610623 7.93696428 3.37484634 15.02589123 2 23 C1.67 23 1.34 23 1 23 C-0.06059488 15.31068715 -0.09928082 7.75493514 0 0 Z " fill="#517B6E" transform="translate(296,649)"/>
<path d="M0 0 C0.66 0.33 1.32 0.66 2 1 C-4.07792208 7.24675325 -4.07792208 7.24675325 -7 9 C-7.99 8.67 -8.98 8.34 -10 8 C-6.7 5.36 -3.4 2.72 0 0 Z " fill="#E0E8E6" transform="translate(743,954)"/>
<path d="M0 0 C1 2 1 2 0.546875 3.91015625 C0.28390625 4.62042969 0.0209375 5.33070313 -0.25 6.0625 C-0.62898437 7.13177734 -0.62898437 7.13177734 -1.015625 8.22265625 C-2 10 -2 10 -5 11 C-4.55123384 9.35153231 -4.09069512 7.70626545 -3.625 6.0625 C-3.36976563 5.14597656 -3.11453125 4.22945312 -2.8515625 3.28515625 C-2 1 -2 1 0 0 Z " fill="#D69F3D" transform="translate(906,655)"/>
<path d="M0 0 C3.96 0.33 7.92 0.66 12 1 C8 4 8 4 5 5 C3.35 3.35 1.7 1.7 0 0 Z " fill="#F4EDE1" transform="translate(684,560)"/>
<path d="M0 0 C3.68006822 3.38168431 5.9785845 6.42521756 8 11 C7.34 11 6.68 11 6 11 C6 10.34 6 9.68 6 9 C5.01 8.67 4.02 8.34 3 8 C0.92469613 5.07920195 0 3.62453269 0 0 Z " fill="#16503C" transform="translate(902,398)"/>
<path d="M0 0 C1 2 1 2 0.0625 5.125 C-0.288125 6.07375 -0.63875 7.0225 -1 8 C-1.66 8 -2.32 8 -3 8 C-3.33 9.98 -3.66 11.96 -4 14 C-5.15006091 10.62700256 -4.85199953 8.65146785 -3.6875 5.3125 C-3.42324219 4.52488281 -3.15898437 3.73726563 -2.88671875 2.92578125 C-2 1 -2 1 0 0 Z " fill="#F1E6CD" transform="translate(488,361)"/>
<path d="M0 0 C0 0.33 0 0.66 0 1 C-0.84304688 1.13277344 -1.68609375 1.26554687 -2.5546875 1.40234375 C-3.65039062 1.57894531 -4.74609375 1.75554687 -5.875 1.9375 C-6.96554687 2.11152344 -8.05609375 2.28554688 -9.1796875 2.46484375 C-11.93821546 2.85551159 -11.93821546 2.85551159 -14 4 C-16.00800456 3.71887936 -18.01014051 3.38932033 -20 3 C-20 2.67 -20 2.34 -20 2 C-13.25846717 0.74158054 -6.86515862 -0.26404456 0 0 Z " fill="#E0BC72" transform="translate(602,271)"/>
<path d="M0 0 C0.66 0.99 1.32 1.98 2 3 C1.01 4.98 0.02 6.96 -1 9 C-1.99 9 -2.98 9 -4 9 C-2.94124926 5.59687262 -1.99097846 2.98646769 0 0 Z " fill="#205948" transform="translate(318,575)"/>
<path d="M0 0 C0.33 0 0.66 0 1 0 C1.36504603 1.58086048 1.71660506 3.16483907 2.0625 4.75 C2.25972656 5.63171875 2.45695312 6.5134375 2.66015625 7.421875 C2.99825872 9.98679028 2.81158635 11.57091639 2 14 C2 13.34 2 12.68 2 12 C1.34 12 0.68 12 0 12 C-0.76173392 7.6835078 -1.16063604 4.25566547 0 0 Z " fill="#326452" transform="translate(372,552)"/>
<path d="M0 0 C0.66 1.32 1.32 2.64 2 4 C1.1015625 6.140625 1.1015625 6.140625 -0.375 8.25 C-0.85710938 8.95640625 -1.33921875 9.6628125 -1.8359375 10.390625 C-2.22007812 10.92171875 -2.60421875 11.4528125 -3 12 C-3.66 11.67 -4.32 11.34 -5 11 C-3.35 7.37 -1.7 3.74 0 0 Z " fill="#E4EDEA" transform="translate(799,883)"/>
<path d="M0 0 C0.33 0 0.66 0 1 0 C1.22354607 1.89409978 1.42819951 3.7904348 1.625 5.6875 C1.74101562 6.74324219 1.85703125 7.79898438 1.9765625 8.88671875 C2.0010326 12.13716346 1.40852563 14.10230796 0 17 C-0.33 17 -0.66 17 -1 17 C-0.67 11.39 -0.34 5.78 0 0 Z " fill="#567D70" transform="translate(281,736)"/>
<path d="M0 0 C0.66 0 1.32 0 2 0 C2.33 2.64 2.66 5.28 3 8 C1.68 8.33 0.36 8.66 -1 9 C-0.67 6.03 -0.34 3.06 0 0 Z " fill="#CAD9D3" transform="translate(301,701)"/>
<path d="M0 0 C0.66 0.33 1.32 0.66 2 1 C-0.36292656 3.52588702 -1.66462511 4.88820837 -5 6 C-5.66 5.34 -6.32 4.68 -7 4 C-1.7265625 0.77734375 -1.7265625 0.77734375 0 0 Z " fill="#E1EAE7" transform="translate(713,974)"/>
<path d="M0 0 C0.99 0.33 1.98 0.66 3 1 C2.25 2.9375 2.25 2.9375 1 5 C-1.125 5.75 -1.125 5.75 -3 6 C-2.01 4.02 -1.02 2.04 0 0 Z " fill="#E1E7E4" transform="translate(759,912)"/>
<path d="M0 0 C0.33 0.99 0.66 1.98 1 3 C-1.25 5.0625 -1.25 5.0625 -4 7 C-5.32 6.67 -6.64 6.34 -8 6 C-5.36 4.02 -2.72 2.04 0 0 Z " fill="#165542" transform="translate(841,801)"/>
<path d="M0 0 C4.31392226 0.4793247 6.16569547 1.7457985 9 5 C8.01 5.495 8.01 5.495 7 6 C5.83054208 5.19152271 4.66449539 4.37810888 3.5 3.5625 C2.8503125 3.11003906 2.200625 2.65757812 1.53125 2.19140625 C1.0259375 1.79824219 0.520625 1.40507813 0 1 C0 0.67 0 0.34 0 0 Z " fill="#124E39" transform="translate(511,772)"/>
<path d="M0 0 C1.8871875 0.0309375 1.8871875 0.0309375 3.8125 0.0625 C0.82603231 2.05347846 -1.78437262 3.00374926 -5.1875 4.0625 C-5.1875 3.4025 -5.1875 2.7425 -5.1875 2.0625 C-5.8475 1.7325 -6.5075 1.4025 -7.1875 1.0625 C-4.43671116 0.14557039 -2.82801087 -0.04636083 0 0 Z " fill="#D29B32" transform="translate(816.1875,736.9375)"/>
<path d="M0 0 C0.99 0.33 1.98 0.66 3 1 C-0.32307692 4.93846154 -0.32307692 4.93846154 -3.75 5.25 C-4.4925 5.1675 -5.235 5.085 -6 5 C-5.195625 4.360625 -4.39125 3.72125 -3.5625 3.0625 C-1.7249496 1.59396498 -1.7249496 1.59396498 0 0 Z " fill="#D6A138" transform="translate(699,513)"/>
<path d="M0 0 C3.25543229 0.34879632 4.01873107 1.02133261 6.25 3.5625 C6.8275 4.366875 7.405 5.17125 8 6 C5 6 5 6 3.61328125 4.6875 C2.40885417 3.125 1.20442708 1.5625 0 0 Z " fill="#14513D" transform="translate(864,352)"/>
<path d="M0 0 C-2.75924185 1.80411967 -3.88972103 2.0127245 -7.25 1.625 C-8.1575 1.41875 -9.065 1.2125 -10 1 C-10 0.67 -10 0.34 -10 0 C-6.30458414 -0.95024979 -3.69541586 -0.95024979 0 0 Z M-7 2 C-4 3 -4 3 -4 3 Z " fill="#C4D3CE" transform="translate(694,938)"/>
<path d="M0 0 C2.7972908 2.06756277 3.02692273 3.14440371 3.6875 6.6875 C3.790625 7.780625 3.89375 8.87375 4 10 C1.67527795 7.14693203 0.2491742 4.45925163 -1 1 C-0.67 0.67 -0.34 0.34 0 0 Z " fill="#14503E" transform="translate(374,674)"/>
<path d="M0 0 C0.66 0.66 1.32 1.32 2 2 C1.625 5.625 1.625 5.625 1 9 C0.34 9 -0.32 9 -1 9 C-0.67 6.03 -0.34 3.06 0 0 Z " fill="#DBE4E1" transform="translate(339,507)"/>
<path d="M0 0 C0.33 0.66 0.66 1.32 1 2 C-0.65 3.65 -2.3 5.3 -4 7 C-4.99 6.67 -5.98 6.34 -7 6 C-4.69 4.02 -2.38 2.04 0 0 Z " fill="#1C503F" transform="translate(896,733)"/>
<path d="M0 0 C2.50298434 2.93828597 3.46930939 5.17902761 4 9 C3.01 8.67 2.02 8.34 1 8 C-0.1875 4.4375 -0.1875 4.4375 -1 1 C-0.67 0.67 -0.34 0.34 0 0 Z " fill="#D6E1DD" transform="translate(930,498)"/>
<path d="M0 0 C0.33 0 0.66 0 1 0 C1 2.31 1 4.62 1 7 C-0.32 6.34 -1.64 5.68 -3 5 C-2.03114628 3.31503702 -1.03013277 1.64821244 0 0 Z " fill="#D6E2DC" transform="translate(392,434)"/>
<path d="M0 0 C-1.15173355 2.46800047 -2.04783565 4.04783565 -4 6 C-4.99 5.67 -5.98 5.34 -7 5 C-2.25 0 -2.25 0 0 0 Z " fill="#105541" transform="translate(387,422)"/>
<path d="M0 0 C-1.39332574 3.36720387 -2.9789286 4.9859524 -6 7 C-5.37162381 3.35541809 -4.14650034 0 0 0 Z " fill="#D59D3B" transform="translate(518,313)"/>
</svg>
