<svg version="1.1" id="Layer_1" xmlns="http://www.w3.org/2000/svg" xmlns:xlink="http://www.w3.org/1999/xlink" x="0px" y="0px"
	 width="100%" viewBox="0 0 1024 1024" enable-background="new 0 0 1024 1024" xml:space="preserve">
<path fill="#000000" opacity="1.000000" stroke="none" 
	d="
M795.181519,510.798096 
	C792.447510,536.332703 786.336548,560.399048 773.981995,582.589661 
	C760.697266,606.451050 741.655762,624.754089 718.760803,639.251038 
	C715.441467,641.352844 712.949097,643.915100 710.896179,647.325378 
	C704.507324,657.937927 696.509705,667.320251 687.722351,676.030945 
	C686.182983,677.556885 684.681152,679.059692 683.740479,681.095215 
	C677.309448,695.011902 668.252258,707.094360 657.674194,718.092285 
	C656.268005,719.554260 655.155518,721.161133 654.280090,722.987244 
	C631.053894,771.436035 591.878967,800.583496 541.071655,814.516663 
	C478.024872,831.806152 417.254852,822.675049 358.728455,795.529785 
	C320.191864,777.656006 286.944580,752.774963 261.615112,718.219849 
	C244.988159,695.536865 233.936691,670.321594 230.163345,642.373718 
	C226.457306,614.924500 230.857025,588.269714 240.593994,562.499878 
	C242.519302,557.404297 243.400330,552.653992 243.038574,547.113220 
	C240.947769,515.089844 249.431152,485.825470 267.226715,459.198090 
	C268.152466,457.812897 268.885345,456.186951 270.103516,455.128082 
	C276.011444,449.992493 276.388977,443.114105 276.686859,436.036438 
	C278.094849,402.584747 290.931274,373.549225 312.447083,348.497406 
	C318.429504,341.531799 321.727112,334.816376 322.735718,325.817993 
	C327.965118,279.164246 351.194061,243.238480 388.884949,215.890762 
	C413.621674,197.942352 441.042938,187.252136 471.276520,183.901291 
	C504.028259,180.271408 536.074280,184.171295 567.354126,194.380356 
	C634.044495,216.146683 687.073303,256.861969 729.232239,312.207703 
	C758.251160,350.303467 778.934631,392.564117 789.659241,439.425049 
	C795.001099,462.766113 796.965088,486.413025 795.181519,510.798096 
M533.774353,207.834457 
	C503.600922,202.862961 473.740570,203.243301 444.536041,213.413025 
	C404.129150,227.483704 377.919830,255.161423 366.329987,296.317291 
	C357.789490,326.644806 358.675720,357.197083 365.930359,387.639130 
	C374.870453,425.153503 390.653625,459.672211 412.354767,491.486084 
	C449.660278,546.175964 497.675964,588.163330 558.987793,614.116150 
	C594.145508,628.998169 630.592163,635.906311 668.737000,629.650940 
	C700.060120,624.514343 726.223755,610.100159 745.898560,584.832581 
	C765.425537,559.754822 774.095642,530.764832 775.648987,499.442352 
	C777.120117,469.777893 771.967773,441.012146 762.233521,413.098633 
	C740.182434,349.865967 701.493652,298.773834 648.040405,258.809113 
	C614.091858,233.427200 576.564697,215.695618 533.774353,207.834457 
M340.276123,449.119354 
	C329.120758,420.324982 322.789337,390.444580 320.548492,359.567505 
	C319.371307,360.589111 318.739777,361.540253 318.224243,362.550598 
	C305.022766,388.423981 300.946289,415.815063 304.577118,444.498291 
	C308.872131,478.428650 320.977295,509.583099 338.390472,538.773743 
	C365.543579,584.291931 401.900513,620.823669 447.116119,648.387573 
	C491.690338,675.560608 539.557739,691.547791 592.450806,689.762207 
	C624.261169,688.688416 653.272644,679.244385 679.414307,661.070496 
	C680.676086,660.193237 682.419250,659.621094 682.621643,657.651001 
	C680.951843,656.849243 679.611633,657.849487 678.240112,658.267517 
	C647.721619,667.572266 616.756897,668.951050 585.413269,663.515930 
	C554.569946,658.167603 525.641479,647.387268 498.544678,631.887512 
	C424.696259,589.645081 371.956024,528.979492 340.276123,449.119354 
M634.342346,716.843689 
	C642.157104,711.440247 649.755188,705.772583 656.426086,698.920349 
	C632.087524,711.671509 606.148682,718.627991 578.904297,720.073547 
	C541.930969,722.035461 506.234985,715.326904 471.979889,701.532776 
	C419.502869,680.401184 375.018860,648.106140 339.139343,604.282166 
	C314.823486,574.582336 296.467285,541.604858 285.526489,504.630188 
	C281.944458,492.524536 279.819611,480.132690 277.294556,466.495239 
	C271.524506,480.144958 268.470734,493.159607 267.389954,506.594208 
	C264.871429,537.899841 272.622162,567.046021 286.759583,594.687622 
	C307.950470,636.120117 338.636383,669.165894 377.160004,694.875732 
	C424.488678,726.462036 476.209290,744.828003 533.690918,744.996643 
	C569.651062,745.102112 603.351196,737.153870 634.342346,716.843689 
M343.917816,712.611328 
	C297.589142,677.837646 264.166870,633.833374 247.620972,576.345703 
	C244.389709,588.273926 243.016769,599.040405 243.583786,609.834351 
	C244.886230,634.629272 253.026840,657.381470 265.825287,678.509521 
	C287.457336,714.220215 317.735962,740.808228 354.014557,760.723267 
	C411.120911,792.071838 471.629974,804.652710 536.226562,791.577332 
	C566.797974,785.389099 594.344971,772.422424 617.861389,751.557068 
	C619.691895,749.932861 621.312378,748.071899 623.030457,746.320984 
	C618.139771,747.774841 614.066467,750.042358 609.858459,752.023926 
	C566.954102,772.228149 521.896484,776.291687 475.629456,768.866028 
	C427.391174,761.123962 383.744324,742.124634 343.917816,712.611328 
z"/>
<path fill="#000000" opacity="1.000000" stroke="none" 
	d="
M739.094971,402.024811 
	C748.356873,426.672211 755.056824,451.550446 755.815063,477.624084 
	C756.850586,513.234375 749.684692,546.568481 726.290039,574.755676 
	C707.415955,597.496338 682.441772,609.012512 653.546875,612.173401 
	C618.494263,616.008057 585.719299,607.032776 554.516174,592.078796 
	C499.784607,565.849060 457.898254,525.270447 425.817352,474.213928 
	C410.136627,449.258209 398.031006,422.654816 390.651886,394.028595 
	C381.609344,358.949554 379.659119,323.977386 393.658234,289.638306 
	C408.288300,253.751511 435.661407,232.951508 472.975372,224.794403 
	C509.498718,216.810150 544.583435,223.431641 578.450684,237.299377 
	C622.284607,255.248245 658.939636,283.274017 689.457153,319.382111 
	C710.377136,344.134521 726.883240,371.573669 739.094971,402.024811 
M435.535797,249.051453 
	C415.973419,262.642059 403.597534,281.363922 396.941650,303.950226 
	C388.307434,333.249817 389.766815,362.795624 398.015533,391.662506 
	C421.759369,474.755188 471.311554,538.013062 547.015320,579.997864 
	C577.759155,597.048279 610.819519,606.735596 646.533691,604.977417 
	C666.647217,603.987183 685.282471,598.321533 701.695984,586.623474 
	C731.940002,565.068359 744.550903,533.898193 747.536926,498.309418 
	C750.021790,468.694122 744.908813,439.915741 734.698792,412.038239 
	C717.801392,365.901459 690.966919,326.462769 654.193970,293.957703 
	C615.007935,259.319580 570.729736,235.156525 517.683167,229.992523 
	C488.464844,227.148178 460.969269,232.202209 435.535797,249.051453 
z"/>
<path fill="#000000" opacity="1.000000" stroke="none" 
	d="
M631.001160,402.267914 
	C619.296814,402.171204 619.296753,402.171204 618.460388,412.455811 
	C616.522705,436.282593 601.100891,453.007996 577.390930,457.410217 
	C573.258972,458.177429 568.756287,457.372833 564.637085,459.814514 
	C566.255615,464.020630 569.752014,466.181519 572.690308,468.676086 
	C603.161865,494.546112 633.717163,520.317444 664.242554,546.124084 
	C665.725220,547.377563 668.089417,548.391479 667.437561,550.724426 
	C666.684082,553.421204 663.929443,552.875366 661.895813,552.888428 
	C649.244019,552.969849 636.591187,552.884216 623.939026,552.935364 
	C620.943115,552.947449 618.523010,552.005310 616.244934,550.019714 
	C583.470093,521.454102 550.735779,492.840332 517.740906,464.530457 
	C512.788147,460.280884 509.560913,455.802856 508.476898,449.374756 
	C507.539154,443.814240 505.832092,438.382568 504.444489,432.899109 
	C503.282349,428.306610 504.210632,427.240356 508.938019,427.305084 
	C522.262390,427.487579 535.596802,427.933807 548.910767,427.606201 
	C562.032776,427.283295 572.945496,422.443939 579.025391,409.828644 
	C582.385132,402.857483 581.500305,401.421844 573.978149,401.259949 
	C549.167603,400.726074 524.358948,400.091461 499.546661,399.665894 
	C495.779663,399.601257 494.333374,398.088470 493.610687,394.551453 
	C492.213165,387.711823 490.449982,380.941040 488.651764,374.191437 
	C487.677856,370.535919 488.686768,368.666840 492.595734,368.776886 
	C511.238586,369.301697 529.883057,369.778961 548.522644,370.403351 
	C557.301147,370.697449 566.065125,370.966461 574.976807,370.447998 
	C575.541016,367.165161 573.600464,365.310760 572.144287,363.488525 
	C562.450195,351.357971 549.831299,345.021454 534.260132,344.163239 
	C519.283020,343.337708 504.298401,343.262970 489.313232,342.970978 
	C479.584961,342.781403 479.658325,342.685150 477.627350,333.252899 
	C476.331635,327.235352 474.906860,321.239075 473.306732,315.296021 
	C472.285309,311.502350 473.859283,310.501312 477.303772,310.554321 
	C506.613739,311.005310 535.892822,312.331757 565.177429,313.524780 
	C578.153748,314.053406 591.140442,314.321655 604.120178,314.774323 
	C610.609070,315.000610 617.090210,315.484772 623.579956,315.635742 
	C626.644226,315.707031 628.065491,317.097656 628.687622,319.958527 
	C630.314026,327.436615 632.041504,334.893280 633.793701,342.343201 
	C634.854370,346.852875 631.768005,347.036835 628.835754,346.985992 
	C621.014893,346.850372 613.198303,346.477112 605.377808,346.293152 
	C603.613586,346.251678 601.715698,345.742310 599.602722,347.358124 
	C602.182922,352.027466 605.684753,356.484406 607.208496,361.537811 
	C609.872253,370.372223 615.240723,373.009094 623.856934,371.921173 
	C628.102905,371.385040 632.501770,372.060883 636.831482,372.186890 
	C639.929321,372.277039 641.617493,373.752319 642.283081,376.896881 
	C643.729919,383.732086 645.412720,390.518494 647.072327,397.306946 
	C647.944519,400.874664 647.099915,402.735229 642.983337,402.447571 
	C639.167114,402.180908 635.322876,402.315338 631.001160,402.267914 
z"/>
</svg>